<svg xmlns="http://www.w3.org/2000/svg" xmlns:xlink="http://www.w3.org/1999/xlink" width="62.269" height="62.296" viewBox="0 0 62.269 62.296">
  <defs>
    <clipPath id="clip-path">
      <rect id="Rectángulo_413" data-name="Rectángulo 413" width="62.269" height="62.296" transform="translate(0 0)" fill="none"/>
    </clipPath>
  </defs>
  <g id="Grupo_512" data-name="Grupo 512" transform="translate(0 0)">
    <path id="Trazado_163" data-name="Trazado 163" d="M1.334,29.2H16.061v2.915l-1.354,1.971L12.3,36.034l-4.205.942-2.9-.969L2.3,33.094l-.238-2.66Z" fill="#da0022"/>
    <g id="Grupo_511" data-name="Grupo 511">
      <g id="Grupo_510" data-name="Grupo 510" clip-path="url(#clip-path)">
        <path id="Trazado_164" data-name="Trazado 164" d="M43.776,55.972a1.46,1.46,0,1,1-1.46-1.46,1.46,1.46,0,0,1,1.46,1.46" fill="#fff"/>
        <path id="Trazado_165" data-name="Trazado 165" d="M43.776,49.141a1.46,1.46,0,1,1-1.46-1.46,1.46,1.46,0,0,1,1.46,1.46" fill="#fff"/>
        <path id="Trazado_166" data-name="Trazado 166" d="M49.128,47.681a1.459,1.459,0,1,1-1.46,1.46,1.459,1.459,0,0,1,1.46-1.46" fill="#fff"/>
        <path id="Trazado_167" data-name="Trazado 167" d="M49.128,54.512a1.459,1.459,0,1,1-1.46,1.46,1.459,1.459,0,0,1,1.46-1.46" fill="#fff"/>
        <path id="Trazado_168" data-name="Trazado 168" d="M57.409,49.141a1.459,1.459,0,1,1-1.46-1.46,1.46,1.46,0,0,1,1.46,1.46" fill="#fff"/>
        <path id="Trazado_169" data-name="Trazado 169" d="M57.409,55.972a1.459,1.459,0,1,1-1.46-1.46,1.46,1.46,0,0,1,1.46,1.46" fill="#fff"/>
        <path id="Trazado_170" data-name="Trazado 170" d="M57.409,42.319a1.459,1.459,0,1,1-1.46-1.46,1.46,1.46,0,0,1,1.46,1.46" fill="#fff"/>
        <path id="Trazado_171" data-name="Trazado 171" d="M49.128,40.859a1.459,1.459,0,1,1-1.46,1.46,1.459,1.459,0,0,1,1.46-1.46" fill="#fff"/>
        <path id="Trazado_172" data-name="Trazado 172" d="M43.776,42.319a1.46,1.46,0,1,1-1.46-1.46,1.46,1.46,0,0,1,1.46,1.46" fill="#fff"/>
        <rect id="Rectángulo_411" data-name="Rectángulo 411" width="16.543" height="3.883" transform="translate(40.876 33.094)" fill="#da0022"/>
        <rect id="Rectángulo_412" data-name="Rectángulo 412" width="8.758" height="2.899" transform="translate(11.682 51.613)" fill="#da0022"/>
        <path id="Trazado_173" data-name="Trazado 173" d="M36.973,41.881v9.731H9.736v-.019a1.952,1.952,0,0,1-1.947-1.946V43.778A1.96,1.96,0,0,1,9.346,41.87l.39.011Z" fill="#da0022"/>
        <path id="Trazado_174" data-name="Trazado 174" d="M57.419,37.954H40.879a.972.972,0,0,1-.974-.973V33.089a.973.973,0,0,1,.974-.973h16.54a.973.973,0,0,1,.973.973v3.892a.972.972,0,0,1-.973.973M41.852,36.008H56.446V34.063H41.852Z" fill="#fff"/>
        <path id="Trazado_175" data-name="Trazado 175" d="M55.95,58.4a2.433,2.433,0,1,1,2.433-2.432A2.435,2.435,0,0,1,55.95,58.4m0-2.919a.487.487,0,1,0,.487.487.488.488,0,0,0-.487-.487" fill="#fff"/>
        <path id="Trazado_176" data-name="Trazado 176" d="M55.95,51.572a2.432,2.432,0,1,1,2.433-2.432,2.435,2.435,0,0,1-2.433,2.432m0-2.919a.487.487,0,1,0,.487.487.488.488,0,0,0-.487-.487" fill="#fff"/>
        <path id="Trazado_177" data-name="Trazado 177" d="M55.95,44.752a2.432,2.432,0,1,1,2.433-2.432,2.434,2.434,0,0,1-2.433,2.432m0-2.919a.487.487,0,1,0,.487.487.488.488,0,0,0-.487-.487" fill="#fff"/>
        <path id="Trazado_178" data-name="Trazado 178" d="M49.132,58.4a2.433,2.433,0,1,1,2.432-2.432A2.435,2.435,0,0,1,49.132,58.4m0-2.919a.487.487,0,1,0,.486.487.488.488,0,0,0-.486-.487" fill="#fff"/>
        <path id="Trazado_179" data-name="Trazado 179" d="M49.132,51.572a2.432,2.432,0,1,1,2.432-2.432,2.435,2.435,0,0,1-2.432,2.432m0-2.919a.487.487,0,1,0,.486.487.488.488,0,0,0-.486-.487" fill="#fff"/>
        <path id="Trazado_180" data-name="Trazado 180" d="M49.132,44.752a2.432,2.432,0,1,1,2.432-2.432,2.435,2.435,0,0,1-2.432,2.432m0-2.919a.487.487,0,1,0,.486.487.488.488,0,0,0-.486-.487" fill="#fff"/>
        <path id="Trazado_181" data-name="Trazado 181" d="M42.313,58.4a2.433,2.433,0,1,1,2.432-2.432A2.435,2.435,0,0,1,42.313,58.4m0-2.919a.487.487,0,1,0,.486.487.488.488,0,0,0-.486-.487" fill="#fff"/>
        <path id="Trazado_182" data-name="Trazado 182" d="M42.313,51.572a2.432,2.432,0,1,1,2.432-2.432,2.435,2.435,0,0,1-2.432,2.432m0-2.919a.487.487,0,1,0,.486.487.488.488,0,0,0-.486-.487" fill="#fff"/>
        <path id="Trazado_183" data-name="Trazado 183" d="M42.313,44.752a2.432,2.432,0,1,1,2.432-2.432,2.435,2.435,0,0,1-2.432,2.432m0-2.919a.487.487,0,1,0,.486.487.488.488,0,0,0-.486-.487" fill="#fff"/>
        <path id="Trazado_184" data-name="Trazado 184" d="M61.3,62.3H36.972A.972.972,0,0,1,36,61.323V29.2a.972.972,0,0,1,.973-.972H61.3a.973.973,0,0,1,.973.972V61.323a.973.973,0,0,1-.973.973M37.945,60.35H60.322V30.175H37.945Z" fill="#fff"/>
        <path id="Trazado_185" data-name="Trazado 185" d="M20.439,42.826a.972.972,0,0,1-.973-.973V38.934a.973.973,0,0,1,1.946,0v2.919a.972.972,0,0,1-.973.973" fill="#fff"/>
        <path id="Trazado_186" data-name="Trazado 186" d="M33.092,42.826a.972.972,0,0,1-.973-.973V38.934a.973.973,0,1,1,1.946,0v2.919a.973.973,0,0,1-.973.973" fill="#fff"/>
        <path id="Trazado_187" data-name="Trazado 187" d="M33.092,39.908H20.44a.973.973,0,1,1,0-1.946H33.092a.973.973,0,0,1,0,1.946" fill="#fff"/>
        <path id="Trazado_188" data-name="Trazado 188" d="M24.825,39.908a.972.972,0,0,1-.973-.973V9.741a.973.973,0,1,1,1.946,0V38.935a.973.973,0,0,1-.973.973" fill="#fff"/>
        <path id="Trazado_189" data-name="Trazado 189" d="M28.7,39.908a.972.972,0,0,1-.973-.973V9.741a.973.973,0,1,1,1.946,0V38.935a.972.972,0,0,1-.973.973" fill="#fff"/>
        <path id="Trazado_190" data-name="Trazado 190" d="M28.7,3.885a.972.972,0,0,1-.973-.973.965.965,0,1,0-1.93,0,.973.973,0,0,1-1.946,0,2.911,2.911,0,1,1,5.822,0,.972.972,0,0,1-.973.973" fill="#fff"/>
        <path id="Trazado_191" data-name="Trazado 191" d="M44.793,10.7a.973.973,0,0,1,0-1.946.966.966,0,0,0,0-1.931.973.973,0,0,1,0-1.946,2.912,2.912,0,0,1,0,5.823" fill="#fff"/>
        <path id="Trazado_192" data-name="Trazado 192" d="M44.793,6.824H8.748a.973.973,0,0,1,0-1.946H44.793a.973.973,0,0,1,0,1.946" fill="#fff"/>
        <path id="Trazado_193" data-name="Trazado 193" d="M44.793,10.7H8.732a.973.973,0,1,1,0-1.946H44.793a.973.973,0,0,1,0,1.946" fill="#fff"/>
        <path id="Trazado_194" data-name="Trazado 194" d="M8.759,10.7a2.912,2.912,0,0,1,0-5.823.973.973,0,1,1,0,1.946.966.966,0,0,0,0,1.931.973.973,0,1,1,0,1.946" fill="#fff"/>
        <path id="Trazado_195" data-name="Trazado 195" d="M24.825,6.824a.972.972,0,0,1-.973-.973V2.912a.973.973,0,0,1,1.946,0V5.851a.973.973,0,0,1-.973.973" fill="#fff"/>
        <path id="Trazado_196" data-name="Trazado 196" d="M28.7,6.824a.972.972,0,0,1-.973-.973V2.912a.973.973,0,1,1,1.946,0V5.851a.972.972,0,0,1-.973.973" fill="#fff"/>
        <path id="Trazado_197" data-name="Trazado 197" d="M8.758,37.959A8.768,8.768,0,0,1,0,29.2a.973.973,0,0,1,1.946,0,6.812,6.812,0,1,0,13.624,0,.973.973,0,0,1,1.946,0,8.767,8.767,0,0,1-8.758,8.758" fill="#fff"/>
        <path id="Trazado_198" data-name="Trazado 198" d="M16.543,30.174H.973a.973.973,0,1,1,0-1.946h15.57a.973.973,0,1,1,0,1.946" fill="#fff"/>
        <path id="Trazado_199" data-name="Trazado 199" d="M16.543,30.174a.973.973,0,0,1-.9-.611L7.83,10.089a.973.973,0,0,1,1.806-.724l7.81,19.474a.971.971,0,0,1-.541,1.265.943.943,0,0,1-.362.07" fill="#fff"/>
        <path id="Trazado_200" data-name="Trazado 200" d="M.973,30.174a.955.955,0,0,1-.36-.069.973.973,0,0,1-.544-1.264L7.829,9.367a.973.973,0,0,1,1.808.721L1.877,29.561a.973.973,0,0,1-.9.613" fill="#fff"/>
        <path id="Trazado_201" data-name="Trazado 201" d="M52.558,30.174a.973.973,0,0,1-.9-.611l-7.81-19.474a.973.973,0,0,1,1.806-.724l7.81,19.474A.972.972,0,0,1,52.92,30.1a.943.943,0,0,1-.362.07" fill="#fff"/>
        <path id="Trazado_202" data-name="Trazado 202" d="M36.988,30.174a.951.951,0,0,1-.36-.069.972.972,0,0,1-.544-1.264l7.76-19.474a.973.973,0,0,1,1.808.72L37.891,29.561a.971.971,0,0,1-.9.613" fill="#fff"/>
        <path id="Trazado_203" data-name="Trazado 203" d="M36.978,42.85H9.735a.973.973,0,0,1,0-1.946H36.978a.973.973,0,1,1,0,1.946" fill="#fff"/>
        <path id="Trazado_204" data-name="Trazado 204" d="M36.978,52.581H9.735a.973.973,0,0,1,0-1.946H36.978a.973.973,0,0,1,0,1.946" fill="#fff"/>
        <path id="Trazado_205" data-name="Trazado 205" d="M9.737,52.564a2.922,2.922,0,0,1-2.919-2.919.973.973,0,0,1,1.946,0,.973.973,0,0,0,.973.973.973.973,0,0,1,0,1.946" fill="#fff"/>
        <path id="Trazado_206" data-name="Trazado 206" d="M7.791,44.753a.972.972,0,0,1-.973-.973,2.922,2.922,0,0,1,2.918-2.919.973.973,0,0,1,0,1.946.974.974,0,0,0-.973.973.973.973,0,0,1-.972.973" fill="#fff"/>
        <path id="Trazado_207" data-name="Trazado 207" d="M7.791,50.618a.972.972,0,0,1-.973-.973V43.781a.972.972,0,1,1,1.945,0v5.864a.973.973,0,0,1-.972.973" fill="#fff"/>
        <path id="Trazado_208" data-name="Trazado 208" d="M11.683,55.484a.972.972,0,0,1-.973-.973v-2.9a.973.973,0,0,1,1.946,0v2.9a.973.973,0,0,1-.973.973" fill="#fff"/>
        <path id="Trazado_209" data-name="Trazado 209" d="M20.442,55.484H11.683a.973.973,0,0,1,0-1.946h8.759a.973.973,0,1,1,0,1.946" fill="#fff"/>
        <path id="Trazado_210" data-name="Trazado 210" d="M20.442,55.484a.972.972,0,0,1-.973-.973v-2.9a.973.973,0,0,1,1.946,0v2.9a.973.973,0,0,1-.973.973" fill="#fff"/>
      </g>
    </g>
  </g>
</svg>
