<svg xmlns="http://www.w3.org/2000/svg" xmlns:xlink="http://www.w3.org/1999/xlink" width="58.402" height="62.295" viewBox="0 0 58.402 62.295">
  <defs>
    <clipPath id="clip-path">
      <rect id="Rectángulo_414" data-name="Rectángulo 414" width="58.402" height="62.295" transform="translate(0 0)" fill="none"/>
    </clipPath>
  </defs>
  <g id="Grupo_514" data-name="Grupo 514" transform="translate(0 0)">
    <g id="Grupo_513" data-name="Grupo 513" clip-path="url(#clip-path)">
      <path id="Trazado_211" data-name="Trazado 211" d="M37.99,47.695a1.918,1.918,0,1,1-1.918,1.919,1.915,1.915,0,0,1,1.918-1.919" fill="#da0022"/>
      <path id="Trazado_212" data-name="Trazado 212" d="M40.881,57.429v3.893l-2.92-.973-2.92.973V54.411a2.392,2.392,0,0,0,.954-.02,2.317,2.317,0,0,0,3.932,0,2.429,2.429,0,0,0,.954.02Z" fill="#da0022"/>
      <path id="Trazado_213" data-name="Trazado 213" d="M35.041,54.411a2.33,2.33,0,0,1-1.83-2.8,2.326,2.326,0,0,1,0-3.941A2.326,2.326,0,0,1,36,44.882a2.329,2.329,0,0,1,3.931,0,2.325,2.325,0,0,1,2.785,2.785,2.328,2.328,0,0,1,0,3.942,2.329,2.329,0,0,1-1.83,2.8,2.392,2.392,0,0,1-.954-.02,2.318,2.318,0,0,1-3.932,0,2.41,2.41,0,0,1-.954.019m4.867-4.8a1.918,1.918,0,1,0-1.918,1.917,1.915,1.915,0,0,0,1.918-1.917" fill="#da0022"/>
      <path id="Trazado_214" data-name="Trazado 214" d="M5.84.973H42.828A4.87,4.87,0,0,0,37.961,5.84H.973A4.87,4.87,0,0,1,5.84.973" fill="#da0022"/>
      <path id="Trazado_215" data-name="Trazado 215" d="M.973,6.813A.973.973,0,0,1,0,5.84,5.846,5.846,0,0,1,5.84,0a.974.974,0,0,1,0,1.947A3.9,3.9,0,0,0,1.946,5.84a.973.973,0,0,1-.973.973" fill="#fff"/>
      <path id="Trazado_216" data-name="Trazado 216" d="M47.695,6.813a.973.973,0,0,1-.973-.973,3.893,3.893,0,1,0-7.787,0,.974.974,0,0,1-1.947,0,5.84,5.84,0,1,1,11.68,0,.973.973,0,0,1-.973.973" fill="#fff"/>
      <path id="Trazado_217" data-name="Trazado 217" d="M42.828,1.947H5.84A.974.974,0,0,1,5.84,0H42.828a.974.974,0,0,1,0,1.947" fill="#fff"/>
      <path id="Trazado_218" data-name="Trazado 218" d="M37.961,6.813H.973a.974.974,0,0,1,0-1.947H37.961a.974.974,0,0,1,0,1.947" fill="#fff"/>
      <path id="Trazado_219" data-name="Trazado 219" d="M15.574,58.4a5.846,5.846,0,0,1-5.84-5.84.973.973,0,1,1,1.947,0,3.9,3.9,0,0,0,3.893,3.893.973.973,0,0,1,0,1.947" fill="#fff"/>
      <path id="Trazado_220" data-name="Trazado 220" d="M52.562,58.4a5.846,5.846,0,0,1-5.84-5.84.973.973,0,1,1,1.947,0,3.893,3.893,0,0,0,7.786,0,.973.973,0,1,1,1.947,0,5.846,5.846,0,0,1-5.84,5.84" fill="#fff"/>
      <path id="Trazado_221" data-name="Trazado 221" d="M35.041,58.4H15.574a.973.973,0,1,1,0-1.947H35.041a.973.973,0,0,1,0,1.947" fill="#fff"/>
      <path id="Trazado_222" data-name="Trazado 222" d="M47.695,53.535a.972.972,0,0,1-.973-.973V5.84a.973.973,0,1,1,1.946,0V52.562a.972.972,0,0,1-.973.973" fill="#fff"/>
      <path id="Trazado_223" data-name="Trazado 223" d="M10.707,53.535a.972.972,0,0,1-.973-.973V5.84a.973.973,0,1,1,1.946,0V52.562a.972.972,0,0,1-.973.973" fill="#fff"/>
      <path id="Trazado_224" data-name="Trazado 224" d="M57.429,53.535H47.695a.973.973,0,0,1,0-1.947h9.734a.973.973,0,0,1,0,1.947" fill="#fff"/>
      <path id="Trazado_225" data-name="Trazado 225" d="M37.961,56.455a3.285,3.285,0,0,1-2.4-1.034,3.294,3.294,0,0,1-3.385-3.385,3.3,3.3,0,0,1,0-4.791,3.294,3.294,0,0,1,3.386-3.384,3.294,3.294,0,0,1,4.791,0,3.249,3.249,0,0,1,2.423.962,3.285,3.285,0,0,1,.964,2.422,3.3,3.3,0,0,1,0,4.792,3.294,3.294,0,0,1-3.3,3.386h-.088a3.289,3.289,0,0,1-2.4,1.033m-1.969-3.034a.976.976,0,0,1,.821.451,1.4,1.4,0,0,0,2.3,0,.978.978,0,0,1,1.032-.426,1.393,1.393,0,0,0,.3.033,1.348,1.348,0,0,0,1.318-1.655.974.974,0,0,1,.427-1.032,1.355,1.355,0,0,0,0-2.3.975.975,0,0,1-.428-1.033,1.351,1.351,0,0,0-1.621-1.622.975.975,0,0,1-1.032-.426,1.4,1.4,0,0,0-2.3,0,.973.973,0,0,1-1.032.426,1.351,1.351,0,0,0-1.621,1.622.977.977,0,0,1-.427,1.033,1.353,1.353,0,0,0,0,2.3.974.974,0,0,1,.426,1.032,1.353,1.353,0,0,0,1.625,1.623.931.931,0,0,1,.209-.024" fill="#fff"/>
      <path id="Trazado_226" data-name="Trazado 226" d="M37.991,52.5a2.89,2.89,0,1,1,2.89-2.89,2.893,2.893,0,0,1-2.89,2.89m0-3.833a.943.943,0,1,0,.943.943.945.945,0,0,0-.943-.943" fill="#fff"/>
      <path id="Trazado_227" data-name="Trazado 227" d="M35.041,62.295a.972.972,0,0,1-.973-.973V54.407a.973.973,0,1,1,1.946,0v6.915a.972.972,0,0,1-.973.973" fill="#fff"/>
      <path id="Trazado_228" data-name="Trazado 228" d="M40.881,62.295a.972.972,0,0,1-.973-.973V54.407a.973.973,0,1,1,1.946,0v6.915a.972.972,0,0,1-.973.973" fill="#fff"/>
      <path id="Trazado_229" data-name="Trazado 229" d="M35.041,62.295a.973.973,0,0,1-.307-1.9l2.92-.974a.974.974,0,0,1,.616,1.847l-2.921.974a1.012,1.012,0,0,1-.308.05" fill="#fff"/>
      <path id="Trazado_230" data-name="Trazado 230" d="M40.881,62.295a1,1,0,0,1-.307-.05l-2.921-.974a.974.974,0,0,1,.616-1.847l2.92.974a.973.973,0,0,1-.308,1.9" fill="#fff"/>
      <path id="Trazado_231" data-name="Trazado 231" d="M52.562,58.4H40.882a.973.973,0,1,1,0-1.947h11.68a.973.973,0,0,1,0,1.947" fill="#fff"/>
      <path id="Trazado_232" data-name="Trazado 232" d="M40.881,36.034H17.52a.973.973,0,0,1,0-1.947H40.881a.973.973,0,0,1,0,1.947" fill="#fff"/>
      <path id="Trazado_233" data-name="Trazado 233" d="M29.217,39.93h-11.7a.973.973,0,0,1,0-1.947h11.7a.973.973,0,0,1,0,1.947" fill="#fff"/>
      <path id="Trazado_234" data-name="Trazado 234" d="M40.881,32.137H17.52a.974.974,0,0,1,0-1.947H40.881a.974.974,0,0,1,0,1.947" fill="#fff"/>
      <path id="Trazado_235" data-name="Trazado 235" d="M40.881,28.241H17.52a.973.973,0,0,1,0-1.947H40.881a.973.973,0,0,1,0,1.947" fill="#fff"/>
      <path id="Trazado_236" data-name="Trazado 236" d="M25.323,21.43H17.536a.974.974,0,0,1,0-1.947h7.787a.974.974,0,0,1,0,1.947" fill="#fff"/>
      <path id="Trazado_237" data-name="Trazado 237" d="M21.43,21.43a.973.973,0,0,1-.973-.973V11.7a.973.973,0,1,1,1.946,0v8.761a.973.973,0,0,1-.973.973" fill="#fff"/>
      <path id="Trazado_238" data-name="Trazado 238" d="M25.323,13.643H17.536a.973.973,0,0,1,0-1.947h7.787a.973.973,0,0,1,0,1.947" fill="#fff"/>
      <path id="Trazado_239" data-name="Trazado 239" d="M26.3,16.563H24.35a.973.973,0,0,1,0-1.947H26.3a.973.973,0,0,1,0,1.947" fill="#fff"/>
      <path id="Trazado_240" data-name="Trazado 240" d="M18.51,16.563H16.563a.973.973,0,0,1,0-1.947H18.51a.973.973,0,0,1,0,1.947" fill="#fff"/>
    </g>
  </g>
</svg>
