<svg xmlns="http://www.w3.org/2000/svg" xmlns:xlink="http://www.w3.org/1999/xlink" width="141.732" height="27.729" viewBox="0 0 141.732 27.729">
  <defs>
    <clipPath id="clip-path">
      <rect id="Rectángulo_399" data-name="Rectángulo 399" width="141.732" height="27.729" transform="translate(0 0)" fill="none"/>
    </clipPath>
  </defs>
  <g id="Grupo_495" data-name="Grupo 495" transform="translate(0 0)">
    <g id="Grupo_494" data-name="Grupo 494" clip-path="url(#clip-path)">
      <path id="Trazado_30" data-name="Trazado 30" d="M21.676,27.352H0V26.107l.98-.15c2.111-.415,2.413-.829,2.375-3.544V7.145C3.393,4.432,3.129,4.017.98,3.6L0,3.451V2.207H13.194V3.451L11.988,3.6c-2.036.34-2.413.83-2.338,3.543V25.807h3.016c3.393.037,4.976-1.131,7.05-5.241l1.206-2.488h1.659Z" fill="#fff"/>
      <path id="Trazado_31" data-name="Trazado 31" d="M35.54,25.5a4.87,4.87,0,0,1-4.26-1.922c-.905-1.245-1.169-2.678-1.207-5.656h12.7c0-2.789-.34-4.334-1.282-5.729-1.395-2.187-4.109-3.355-7.691-3.355-6.219,0-9.725,3.392-9.725,9.348s3.581,9.538,9.537,9.538c3.694,0,5.919-.98,8.708-3.807l-.754-.83A8.013,8.013,0,0,1,35.54,25.5m-4.863-12.78a3.23,3.23,0,0,1,3.2-2.639c2.45,0,3.544,1.885,3.732,6.522h-7.5a15.226,15.226,0,0,1,.566-3.883" fill="#fff"/>
      <path id="Trazado_32" data-name="Trazado 32" d="M28.906,6.479l7.5-3.408a2.078,2.078,0,0,1,1.686-.26,1.408,1.408,0,0,1,.767,1.826c-.232.66-.68.985-1.623,1.136L29.117,7.146Z" fill="#fff"/>
      <path id="Trazado_33" data-name="Trazado 33" d="M63.933,10.388c-1.96.188-2.526.49-4.336,2.639L56.243,16.8l5.051,6.9c1.32,1.772,2.035,2.262,3.619,2.489v1.168H53.3V26.184c1.546-.189,2.111-.453,2.111-1.056a3.319,3.319,0,0,0-.867-1.7l-2.488-3.392L49.306,23.62a3.066,3.066,0,0,0-.829,1.546c0,.565.678.829,2.337,1.018v1.168H42.822V26.184c1.471-.076,2.9-.981,4.411-2.715L51.3,18.908l-4.825-6.522c-1.093-1.508-1.621-1.847-3.2-2V9.22H54.358v1.168c-1.32.151-1.7.377-1.7.981a2.435,2.435,0,0,0,.528,1.206l2.3,3.128,2.489-3.393a1.69,1.69,0,0,0,.414-.941c0-.642-.3-.754-2.035-.981V9.22h7.577Z" fill="#fff"/>
      <path id="Trazado_34" data-name="Trazado 34" d="M74.288,4.977c0-2.978.151-3.28,2.149-3.732l.754-.076V0H65.919V1.169l.754.076c1.961.452,2.149.754,2.149,3.732v7.991c-.038,3.167-.226,3.469-2.149,3.921l-.942.076v1.168l8.557.377Z" fill="#fff"/>
      <path id="Trazado_35" data-name="Trazado 35" d="M86.566,22.375c0,2.978.151,3.28,2.149,3.732l.754.076v1.169H78.2V26.183l.754-.076c1.961-.452,2.149-.754,2.149-3.732V10.742c-.038-3.167-.226-3.469-2.149-3.921l-.942-.076V5.577L86.566,5.2Z" fill="#fff"/>
      <path id="Trazado_36" data-name="Trazado 36" d="M100.25,10.388c-3.016.151-4.486.942-8.444,4.524l6.145,8.105c1.809,2.488,2.638,3.053,4.523,3.167v1.168H94.03L88,18.38l-1.432,1.282V18.116l4.75-4.637c1.432-1.357,1.658-1.7,1.658-2.186,0-.641-.527-.83-2.261-.905V9.22h9.537Z" fill="#fff"/>
      <path id="Trazado_37" data-name="Trazado 37" d="M117.543,24.789a8.336,8.336,0,0,1-6.635,2.941,6.172,6.172,0,0,1-5.466-2.564,8.017,8.017,0,0,1-1.093-4.713V14.347l-.038-1.056c.038-1.885-.452-2.526-2.149-2.828l-.9-.075V9.22l8.558-.377V20.529c0,3.619,1.018,5.089,3.543,5.089a3.746,3.746,0,0,0,3.582-2.224,7.591,7.591,0,0,0,.452-3.166V14.347c-.037-3.13-.226-3.431-2.186-3.884l-.9-.075V9.22l8.558-.377V22.376c0,3.016.15,3.28,2.148,3.732l.754.076v1.169h-8.218Z" fill="#fff"/>
      <path id="Trazado_38" data-name="Trazado 38" d="M140.564,14.686l-1.168.075a6.851,6.851,0,0,0-1.735-3.167,4.942,4.942,0,0,0-3.619-1.621c-1.658,0-2.752.867-2.752,2.225,0,1.507,1.056,2.374,4.788,3.807,2.564.98,3.355,1.357,4.147,2.074a4.741,4.741,0,0,1,1.507,3.732c0,3.882-2.525,5.918-7.313,5.918a16.96,16.96,0,0,1-5.089-.791,3.565,3.565,0,0,0-.792-.114c-.339,0-.6.189-.98.679h-.716l-.075-6.861,1.168-.037c1.282,3.882,3.318,5.918,5.994,5.918,1.885,0,3.167-1.018,3.167-2.563a2.208,2.208,0,0,0-1.169-2,15.678,15.678,0,0,0-3.392-1.433c-3.732-1.394-5.429-3.278-5.429-6.069,0-3.694,2.337-5.616,6.785-5.616a14.851,14.851,0,0,1,4.486.64,2.06,2.06,0,0,0,.6.114c.3,0,.528-.151.792-.528h.716Z" fill="#fff"/>
      <path id="Trazado_39" data-name="Trazado 39" d="M67.917,24.4a2.95,2.95,0,1,0,2.949-2.949A2.949,2.949,0,0,0,67.917,24.4" fill="#da0022"/>
    </g>
  </g>
</svg>
