<svg xmlns="http://www.w3.org/2000/svg" xmlns:xlink="http://www.w3.org/1999/xlink" width="62.174" height="50.514" viewBox="0 0 62.174 50.514">
  <defs>
    <clipPath id="clip-path">
      <rect id="Rectángulo_415" data-name="Rectángulo 415" width="62.174" height="50.514" transform="translate(0 0)" fill="none"/>
    </clipPath>
  </defs>
  <g id="Grupo_516" data-name="Grupo 516" transform="translate(0 0)">
    <g id="Grupo_515" data-name="Grupo 515" clip-path="url(#clip-path)">
      <path id="Trazado_241" data-name="Trazado 241" d="M34.963,1.945V4.86H18.447V1.945a.975.975,0,0,1,.972-.972H33.991a.969.969,0,0,1,.972.972" fill="#da0022"/>
      <path id="Trazado_242" data-name="Trazado 242" d="M55.375,41.768H61.2a2.914,2.914,0,1,1-5.829,0" fill="#fff"/>
      <path id="Trazado_243" data-name="Trazado 243" d="M45.66,41.768a2.914,2.914,0,1,1-5.829,0Z" fill="#fff"/>
      <path id="Trazado_244" data-name="Trazado 244" d="M30.105,26.233v5.829H23.3V20.4h6.8Z" fill="#fff"/>
      <path id="Trazado_245" data-name="Trazado 245" d="M50.517,26.233H30.1V20.4H23.3v5.829H.969V13.6A4.859,4.859,0,0,1,5.827,8.746H47.592A4.859,4.859,0,0,1,52.45,13.6v12.63Z" fill="#da0022"/>
      <path id="Trazado_246" data-name="Trazado 246" d="M3.872,47.616a.972.972,0,0,1-.972-.972V26.228a.972.972,0,1,1,1.944,0V46.644a.972.972,0,0,1-.972.972" fill="#fff"/>
      <path id="Trazado_247" data-name="Trazado 247" d="M41.756,50.514H6.787a.972.972,0,1,1,0-1.943H41.756a.972.972,0,1,1,0,1.943" fill="#fff"/>
      <path id="Trazado_248" data-name="Trazado 248" d="M34,1.943H19.423a.972.972,0,0,1,0-1.943H34a.972.972,0,1,1,0,1.943" fill="#fff"/>
      <path id="Trazado_249" data-name="Trazado 249" d="M18.451,2.915a.971.971,0,0,1-.972-.972A1.946,1.946,0,0,1,19.423,0a.972.972,0,0,1,0,1.943.971.971,0,0,1-.972.972" fill="#fff"/>
      <path id="Trazado_250" data-name="Trazado 250" d="M34.967,2.915a.971.971,0,0,1-.972-.972h0a.971.971,0,1,1,0-1.942,1.946,1.946,0,0,1,1.944,1.943.971.971,0,0,1-.972.972" fill="#fff"/>
      <path id="Trazado_251" data-name="Trazado 251" d="M34.967,5.829a.971.971,0,0,1-.972-.972V1.943a.972.972,0,0,1,1.944,0V4.857a.971.971,0,0,1-.972.972" fill="#fff"/>
      <path id="Trazado_252" data-name="Trazado 252" d="M18.451,5.829a.971.971,0,0,1-.972-.972V1.943a.972.972,0,0,1,1.944,0V4.857a.971.971,0,0,1-.972.972" fill="#fff"/>
      <path id="Trazado_253" data-name="Trazado 253" d="M34.967,5.829H18.451a.972.972,0,0,1,0-1.943H34.967a.972.972,0,1,1,0,1.943" fill="#fff"/>
      <path id="Trazado_254" data-name="Trazado 254" d="M34.967,9.715a.971.971,0,0,1-.972-.972V4.857a.972.972,0,0,1,1.944,0V8.743a.971.971,0,0,1-.972.972" fill="#fff"/>
      <path id="Trazado_255" data-name="Trazado 255" d="M31.081,9.715a.971.971,0,0,1-.972-.972V4.857a.972.972,0,0,1,1.944,0V8.743a.971.971,0,0,1-.972.972" fill="#fff"/>
      <path id="Trazado_256" data-name="Trazado 256" d="M22.337,9.715a.971.971,0,0,1-.972-.972V4.857a.972.972,0,0,1,1.944,0V8.743a.971.971,0,0,1-.972.972" fill="#fff"/>
      <path id="Trazado_257" data-name="Trazado 257" d="M18.451,9.715a.971.971,0,0,1-.972-.972V4.857a.972.972,0,0,1,1.944,0V8.743a.971.971,0,0,1-.972.972" fill="#fff"/>
      <path id="Trazado_258" data-name="Trazado 258" d="M45.646,6.8h-6.8a.972.972,0,0,1,0-1.943h6.8a.972.972,0,1,1,0,1.943" fill="#fff"/>
      <path id="Trazado_259" data-name="Trazado 259" d="M38.845,9.715a.971.971,0,0,1-.972-.972V5.829a.972.972,0,0,1,1.944,0V8.743a.971.971,0,0,1-.972.972" fill="#fff"/>
      <path id="Trazado_260" data-name="Trazado 260" d="M14.573,6.8h-6.8a.972.972,0,0,1,0-1.943h6.8a.972.972,0,1,1,0,1.943" fill="#fff"/>
      <path id="Trazado_261" data-name="Trazado 261" d="M7.772,9.715A.971.971,0,0,1,6.8,8.743V5.829a.972.972,0,1,1,1.944,0V8.743a.971.971,0,0,1-.972.972" fill="#fff"/>
      <path id="Trazado_262" data-name="Trazado 262" d="M14.58,9.715a.971.971,0,0,1-.972-.972V5.829a.972.972,0,1,1,1.944,0V8.743a.971.971,0,0,1-.972.972" fill="#fff"/>
      <path id="Trazado_263" data-name="Trazado 263" d="M30.11,33.029h-6.8a.97.97,0,0,1-.972-.971V20.4a.97.97,0,0,1,.972-.972h6.8a.97.97,0,0,1,.971.972V32.058a.97.97,0,0,1-.971.971m-5.829-1.943h4.858V21.371H24.281Z" fill="#fff"/>
      <path id="Trazado_264" data-name="Trazado 264" d="M26.709,29.143a.972.972,0,0,1-.972-.972V24.285a.972.972,0,0,1,1.944,0v3.886a.972.972,0,0,1-.972.972" fill="#fff"/>
      <path id="Trazado_265" data-name="Trazado 265" d="M52.447,27.2a.972.972,0,0,1-.972-.972V13.6a.972.972,0,1,1,1.944,0V26.228a.972.972,0,0,1-.972.972" fill="#fff"/>
      <path id="Trazado_266" data-name="Trazado 266" d="M52.447,27.2H30.09a.972.972,0,1,1,0-1.943H52.448a.972.972,0,0,1,0,1.943" fill="#fff"/>
      <path id="Trazado_267" data-name="Trazado 267" d="M45.646,9.715a.971.971,0,0,1-.972-.972V5.829a.972.972,0,1,1,1.944,0V8.743a.971.971,0,0,1-.972.972" fill="#fff"/>
      <path id="Trazado_268" data-name="Trazado 268" d="M52.447,14.573a.971.971,0,0,1-.972-.972,3.889,3.889,0,0,0-3.886-3.886.972.972,0,0,1,0-1.943,5.836,5.836,0,0,1,5.83,5.829.971.971,0,0,1-.972.972" fill="#fff"/>
      <path id="Trazado_269" data-name="Trazado 269" d="M.971,27.2A.972.972,0,0,1,0,26.228V13.6a.972.972,0,1,1,1.944,0V26.228a.972.972,0,0,1-.972.972" fill="#fff"/>
      <path id="Trazado_270" data-name="Trazado 270" d="M23.328,27.2H.971a.972.972,0,0,1,0-1.943H23.328a.972.972,0,1,1,0,1.943" fill="#fff"/>
      <path id="Trazado_271" data-name="Trazado 271" d="M.971,14.573A.971.971,0,0,1,0,13.6a5.836,5.836,0,0,1,5.83-5.829.972.972,0,0,1,0,1.943A3.889,3.889,0,0,0,1.943,13.6a.971.971,0,0,1-.972.972" fill="#fff"/>
      <path id="Trazado_272" data-name="Trazado 272" d="M6.787,50.514A3.89,3.89,0,0,1,2.9,46.628a.972.972,0,1,1,1.943,0,1.944,1.944,0,0,0,1.943,1.943.972.972,0,1,1,0,1.943" fill="#fff"/>
      <path id="Trazado_273" data-name="Trazado 273" d="M47.589,9.715H5.829a.972.972,0,0,1,0-1.943h41.76a.972.972,0,1,1,0,1.943" fill="#fff"/>
      <path id="Trazado_274" data-name="Trazado 274" d="M58.288,33.019H42.747a.972.972,0,0,1,0-1.943H58.288a.972.972,0,1,1,0,1.943" fill="#fff"/>
      <path id="Trazado_275" data-name="Trazado 275" d="M50.517,50.51a.972.972,0,0,1-.972-.972v-20.4a.972.972,0,0,1,1.944,0v20.4a.972.972,0,0,1-.972.972" fill="#fff"/>
      <path id="Trazado_276" data-name="Trazado 276" d="M56.345,50.51H44.691a.971.971,0,1,1,0-1.943H56.345a.971.971,0,1,1,0,1.943" fill="#fff"/>
      <path id="Trazado_277" data-name="Trazado 277" d="M42.747,45.651a3.89,3.89,0,0,1-3.886-3.886.972.972,0,1,1,1.943,0,1.943,1.943,0,1,0,3.886,0,.972.972,0,1,1,1.943,0,3.89,3.89,0,0,1-3.886,3.886" fill="#fff"/>
      <path id="Trazado_278" data-name="Trazado 278" d="M45.662,42.737H39.833a.972.972,0,1,1,0-1.943h5.829a.972.972,0,1,1,0,1.943" fill="#fff"/>
      <path id="Trazado_279" data-name="Trazado 279" d="M39.833,42.737a1.009,1.009,0,0,1-.28-.041.972.972,0,0,1-.652-1.209l2.915-9.718a.971.971,0,1,1,1.861.558l-2.913,9.717a.972.972,0,0,1-.931.693" fill="#fff"/>
      <path id="Trazado_280" data-name="Trazado 280" d="M45.662,42.737a.971.971,0,0,1-.931-.693l-2.914-9.717a.971.971,0,1,1,1.861-.558l2.915,9.718a.972.972,0,0,1-.931,1.25" fill="#fff"/>
      <path id="Trazado_281" data-name="Trazado 281" d="M58.288,45.651A3.89,3.89,0,0,1,54.4,41.765a.972.972,0,1,1,1.943,0,1.943,1.943,0,1,0,3.886,0,.972.972,0,1,1,1.943,0,3.89,3.89,0,0,1-3.886,3.886" fill="#fff"/>
      <path id="Trazado_282" data-name="Trazado 282" d="M61.2,42.737H55.373a.972.972,0,1,1,0-1.943H61.2a.972.972,0,1,1,0,1.943" fill="#fff"/>
      <path id="Trazado_283" data-name="Trazado 283" d="M55.373,42.737a1,1,0,0,1-.279-.041.972.972,0,0,1-.652-1.209l2.915-9.718a.971.971,0,1,1,1.861.558L56.3,42.044a.972.972,0,0,1-.931.693" fill="#fff"/>
      <path id="Trazado_284" data-name="Trazado 284" d="M61.2,42.737a.971.971,0,0,1-.931-.693l-2.914-9.717a.971.971,0,1,1,1.861-.558l2.915,9.718a.972.972,0,0,1-.931,1.25" fill="#fff"/>
    </g>
  </g>
</svg>
